<?xml version="1.0" standalone="no"?><!DOCTYPE svg PUBLIC "-//W3C//DTD SVG 1.1//EN" "http://www.w3.org/Graphics/SVG/1.1/DTD/svg11.dtd"><svg t="1732300490316" class="icon" viewBox="0 0 1024 1024" version="1.1" xmlns="http://www.w3.org/2000/svg" p-id="5304" xmlns:xlink="http://www.w3.org/1999/xlink" width="200" height="200"><path d="M349.504 92.501333c-75.242667-0.32-135.168 72.362667-114.88 147.712l43.797333 162.773334a32 32 0 0 0 0.128 0.341333c14.869333 52.885333 10.112 154.901333-6.805333 209.962667v0.128L204.373333 811.008a32 32 0 0 0-0.576 2.133333c-14.08-7.978667-18.346667-13.354667-18.346666-13.354666a33.344 33.344 0 0 0-26.325334-12.16 33.344 33.344 0 0 0-24.576 55.253333s13.909333 15.808 37.44 28.906667c23.552 13.098667 58.88 25.536 105.344 25.536s81.792-12.437333 105.344-25.536c7.530667-4.181333 6.570667-5.098667 11.989334-9.237334 5.418667 4.138667 4.48 5.056 12.010666 9.237334 23.530667 13.098667 58.88 25.536 105.322667 25.536 46.464 0 81.792-12.437333 105.344-25.536 7.530667-4.181333 6.570667-5.098667 11.989333-9.237334 5.418667 4.138667 4.48 5.056 12.010667 9.237334 23.530667 13.098667 58.88 25.536 105.322667 25.536 46.464 0 81.792-12.437333 105.344-25.536 23.530667-13.098667 37.44-28.906667 37.44-28.906667a33.344 33.344 0 0 0-50.901334-43.093333s-2.346667 2.304-6.549333 5.546666V778.666667c0-91.776-26.282667-246.037333-96.874667-388.010667-70.613333-141.952-189.013333-272.746667-370.368-297.109333a118.08 118.08 0 0 0-15.253333-1.066667z m-7.68 64.213334c4.629333-0.490667 9.429333-0.426667 14.378667 0.234666 155.242667 20.864 256.576 131.456 321.578666 262.208C742.826667 549.930667 768 699.776 768 778.666667v42.666666a32 32 0 0 0 0.917333 7.957334c-6.869333 0.853333-14.186667 1.386667-22.250666 1.386666-34.773333 0-58.112-8.896-72.917334-17.130666-13.781333-7.68-17.066667-12.096-17.621333-12.8a33.344 33.344 0 0 0-27.221333-13.12 33.344 33.344 0 0 0-3.029334 0.213333 33.344 33.344 0 0 0-23.424 12.949333c-0.597333 0.746667-3.84 5.12-17.536 12.757334-14.805333 8.234667-38.144 17.130667-72.917333 17.130666-34.773333 0-58.112-8.896-72.917333-17.130666-13.781333-7.68-17.066667-12.096-17.621334-12.8a33.344 33.344 0 0 0-27.221333-13.12 33.344 33.344 0 0 0-3.029333 0.213333 33.344 33.344 0 0 0-23.424 12.949333c-0.597333 0.746667-3.84 5.12-17.536 12.757334-14.805333 8.234667-38.144 17.130667-72.917334 17.130666-4.266667 0-7.850667-0.512-11.797333-0.768l67.093333-196.736a32 32 0 0 0 0.277334-0.917333c17.408-56.533333 20.522667-130.965333 12.096-197.162667 19.264 4.821333 39.296 9.28 58.325333 19.648A430.656 430.656 0 0 1 450.133333 484.266667a32 32 0 1 0 38.4-51.157334s-23.04-17.344-54.528-34.496c-27.733333-15.146667-62.485333-29.482667-99.370666-33.173333l-38.208-141.845333c-9.024-33.493333 13.141333-63.466667 45.397333-66.858667z" p-id="5305"></path></svg>